<svg width="200" height="200" viewBox="0 0 200 200" fill="none" xmlns="http://www.w3.org/2000/svg">
<path fill-rule="evenodd" clip-rule="evenodd" d="M148.141 90.9939C149.101 95.4281 149.611 100.074 149.611 104.861C149.611 124.183 141.3 141.215 128.664 151.256C124.667 145.598 121.148 139.879 118.098 134.1L116.664 131.31L115.874 129.705C111.604 120.894 107.898 110.98 104.756 99.9637C120.167 99.5903 134.473 96.5906 146.518 91.6741L148.141 90.9939ZM92.4653 140.944C95.6119 141.194 98.8256 141.319 102.087 141.319C105.03 141.319 107.933 141.217 110.788 141.017C112.487 144.116 114.323 147.205 116.287 150.277C111.685 150.781 106.936 151.042 102.087 151.042C96.9241 151.042 91.8734 150.747 86.9776 150.183C88.9376 147.118 90.7648 144.039 92.4653 140.944ZM98.4486 99.9652C95.116 111.656 91.147 122.104 86.5429 131.31C83.2851 137.824 79.4361 144.264 74.9958 150.628C62.7925 140.515 54.8193 123.786 54.8193 104.861C54.8193 100.269 55.2887 95.8068 56.1739 91.5368C68.3348 96.555 82.8286 99.6106 98.4486 99.9652ZM101.862 121.875L102.46 123.383C103.571 126.145 104.726 128.821 105.925 131.411L105.987 131.541C104.695 131.578 103.395 131.597 102.087 131.597C100.457 131.597 98.838 131.568 97.2315 131.51C98.5281 128.724 99.7694 125.838 100.96 122.852L101.34 121.873L101.862 121.875ZM102.215 48.9583L102.249 48.9583L103.438 48.9765C122.059 49.5328 138.011 62.7567 145.332 81.615C133.044 87.1076 117.88 90.2777 101.512 90.2777C85.6726 90.2777 70.9619 87.3095 58.901 82.147C66.1209 63.0041 82.1991 49.536 100.996 48.9764L102.215 48.9583Z" fill="black"/>
</svg>
