<svg width="200" height="200" viewBox="0 0 200 200" fill="none" xmlns="http://www.w3.org/2000/svg">
<path fill-rule="evenodd" clip-rule="evenodd" d="M141.856 61.1101C152.054 69.8814 158.333 81.8478 158.333 95.0388C158.333 121.941 132.217 143.75 100 143.75C67.7835 143.75 41.6667 121.941 41.6667 95.0388C41.6667 81.8478 47.9457 69.8814 58.1441 61.1101C62.1084 66.6152 70.3566 71.1079 80.8946 73.6017C78.3436 78.9142 76.8519 85.3489 76.8519 92.2815C76.8519 110.555 87.2157 125.368 100 125.368C112.784 125.368 123.148 110.555 123.148 92.2815C123.148 85.3489 121.657 78.9142 119.107 73.5975C129.558 71.1282 137.757 66.6882 141.761 61.246L141.856 61.1101ZM105.983 75.5302C109.601 78.8593 112.037 85.1141 112.037 92.2815C112.037 102.941 106.648 111.582 100 111.582C93.3522 111.582 87.963 102.941 87.963 92.2815C87.963 85.1141 90.3996 78.8593 94.017 75.5302C95.9749 75.6706 97.9716 75.7381 100 75.7381C101.785 75.7381 103.546 75.6859 105.276 75.5843L105.983 75.5302Z" fill="black"/>
</svg>
