<svg width="200" height="200" viewBox="0 0 200 200" fill="none" xmlns="http://www.w3.org/2000/svg">
<path fill-rule="evenodd" clip-rule="evenodd" d="M113.222 41.6667L128.466 81.1676C133.467 86.9925 136.458 94.3855 136.458 102.431C136.458 114.551 129.669 125.191 119.446 131.219L119.445 138.889C119.445 149.628 110.739 158.333 100 158.333C89.2612 158.333 80.5556 149.628 80.5556 138.889L80.5537 131.219C70.331 125.191 63.5417 114.551 63.5417 102.431C63.5417 94.3145 66.5862 86.862 71.6673 81.0137L88.4057 41.6667C91.9659 59.2771 95.8307 68.0822 100 68.0822C104.169 68.0822 108.577 59.2771 113.222 41.6667ZM73.5177 100C72.0252 108.806 73.1496 114.492 76.8908 117.058C80.6321 119.625 85.5505 119.981 91.646 118.128C87.8142 116.396 84.4188 114.05 81.4597 111.091C78.5006 108.132 75.8533 104.435 73.5177 100ZM126.489 100C124.154 104.435 121.507 108.132 118.547 111.091C115.588 114.05 112.193 116.396 108.361 118.128C114.457 119.981 119.375 119.625 123.116 117.058C126.858 114.492 127.982 108.806 126.489 100Z" fill="black"/>
<path fill-rule="evenodd" clip-rule="evenodd" d="M67.5074 121.185C60.9755 111.36 56.6618 103.981 54.5662 99.0478C52.0908 93.2199 50.5291 85.6683 49.8811 76.3931C43.3483 85.8405 40.7121 96.8729 41.9725 109.49C43.8631 128.416 53.5512 141.022 56.6254 143.909C59.6997 146.795 60.384 137.37 64.0121 133.126C64.8425 132.155 65.6733 131.267 66.5045 130.463C69.0334 128.017 69.4552 124.115 67.5074 121.185Z" fill="black"/>
<path fill-rule="evenodd" clip-rule="evenodd" d="M132.938 121.185C139.47 111.36 143.783 103.981 145.879 99.0478C148.354 93.2199 149.916 85.6683 150.564 76.3931C157.097 85.8405 159.733 96.8729 158.473 109.49C156.582 128.416 146.894 141.022 143.82 143.909C140.745 146.795 140.061 137.37 136.433 133.126C135.603 132.155 134.772 131.267 133.941 130.463C131.412 128.017 130.99 124.115 132.938 121.185Z" fill="black"/>
</svg>
