<svg width="200" height="200" viewBox="0 0 200 200" fill="none" xmlns="http://www.w3.org/2000/svg">
<path fill-rule="evenodd" clip-rule="evenodd" d="M97.5385 44.1806L133.863 65.4895C136.178 66.848 136.954 69.8264 135.596 72.1421C135.448 72.3942 135.278 72.6325 135.087 72.8541L119.305 91.1843C117.553 93.2188 117.783 96.2882 119.817 98.0398C119.841 98.0604 119.865 98.0807 119.889 98.1008L134.722 110.378C136.79 112.089 137.079 115.154 135.368 117.222C135.258 117.355 135.14 117.482 135.017 117.603L98.9744 152.754C98.0134 153.691 96.4745 153.672 95.5373 152.711C94.9714 152.131 94.732 151.306 94.8989 150.513L99.4949 128.672C99.863 126.923 99.2412 125.112 97.8758 123.958L66.5992 97.5246C64.8232 96.0236 64.359 93.475 65.4916 91.4441L90.8334 46.0057C92.1411 43.661 95.1019 42.8203 97.4466 44.128C97.4775 44.1452 97.5081 44.1627 97.5385 44.1806Z" fill="black"/>
</svg>
