<svg width="200" height="200" viewBox="0 0 200 200" fill="none" xmlns="http://www.w3.org/2000/svg">
<path fill-rule="evenodd" clip-rule="evenodd" d="M101.416 65.7804C108.186 57.873 143.623 37.8811 154.316 46.0013C165.009 54.1215 151.949 89.6744 143.109 97.4431C140.626 99.6253 138.157 100.777 135.665 101.133L137.368 108.598C138.925 115.423 134.654 122.218 127.829 123.775C126.904 123.986 125.959 124.092 125.01 124.092L108.636 124.087C110.246 127.88 111.626 132.203 112.778 137.054C116.537 152.894 114.179 157.772 112.778 158.304C111.376 158.836 107.905 152.039 105.046 139.99C103.877 135.067 103.044 129.769 102.545 124.095L98.4294 124.092C97.6433 129.767 96.3293 135.066 94.4875 139.99C89.9804 152.039 84.5092 158.836 82.3004 158.304C80.0916 157.772 76.3754 152.894 82.3004 137.054C84.115 132.203 86.291 127.881 88.8283 124.087L73.7833 124.092C66.7829 124.092 61.108 118.417 61.108 111.417C61.108 110.412 61.2275 109.411 61.464 108.434L63.2798 100.934C61.1453 100.431 59.0237 99.3169 56.8913 97.4431C48.0507 89.6744 34.9916 54.1215 45.6842 46.0013C56.3768 37.8811 91.8145 57.873 98.5843 65.7804C99.1941 66.4927 99.6625 67.2284 100.003 67.9833C100.338 67.2284 100.806 66.4927 101.416 65.7804ZM99.9963 75.0394L99.9183 75.2683C97.6695 81.1375 91.0038 87.2979 84.5419 92.2052C83.0782 93.3168 81.6457 94.3781 80.2392 95.3574C86.5414 99.291 92.8906 101.256 99.2873 101.256C105.9 101.256 112.533 99.1557 119.184 94.9546C117.964 94.0882 116.723 93.1654 115.458 92.2052C108.912 87.2341 102.157 80.977 99.9963 75.0394Z" fill="black"/>
</svg>
