<svg width="200" height="200" viewBox="0 0 200 200" fill="none" xmlns="http://www.w3.org/2000/svg">
<path fill-rule="evenodd" clip-rule="evenodd" d="M92.7082 107.292C95.214 107.292 97.2769 109.187 97.5408 111.623L97.5693 112.153H138.889C142.916 112.153 146.18 115.417 146.18 119.444V128.111C146.181 130.372 145.132 132.505 143.341 133.886C128.509 145.323 110.821 151.042 90.2777 151.042C79.1456 151.042 68.7435 146.414 59.0712 137.16C55.7166 133.951 53.8193 129.51 53.8193 124.867V114.583C53.8193 110.556 57.0839 107.292 61.111 107.292H92.7082ZM141.319 85.4166C144.004 85.4166 146.18 87.593 146.18 90.2777V102.43C146.18 105.115 144.004 107.292 141.319 107.292H107.292C104.607 107.292 102.43 105.115 102.43 102.43V90.2777C102.43 87.593 104.607 85.4166 107.292 85.4166H141.319ZM68.4027 48.9583C71.0874 48.9583 73.2638 51.1346 73.2638 53.8194V97.5694C73.2638 100.254 71.0874 102.43 68.4027 102.43H58.6804C55.9957 102.43 53.8193 100.254 53.8193 97.5694V53.8194C53.8193 51.1346 55.9957 48.9583 58.6804 48.9583H68.4027ZM92.7082 48.9583C95.3929 48.9583 97.5693 51.1346 97.5693 53.8194V97.5694C97.5693 100.254 95.3929 102.43 92.7082 102.43H82.986C80.3013 102.43 78.1249 100.254 78.1249 97.5694V53.8194C78.1249 51.1346 80.3013 48.9583 82.986 48.9583H92.7082ZM117.014 48.9583C119.698 48.9583 121.875 51.1346 121.875 53.8194V75.6944C121.875 78.3791 119.698 80.5555 117.014 80.5555H107.292C104.607 80.5555 102.43 78.3791 102.43 75.6944V53.8194C102.43 51.1346 104.607 48.9583 107.292 48.9583H117.014ZM141.319 48.9583C144.004 48.9583 146.18 51.1346 146.18 53.8194V75.6944C146.18 78.3791 144.004 80.5555 141.319 80.5555H131.597C128.912 80.5555 126.736 78.3791 126.736 75.6944V53.8194C126.736 51.1346 128.912 48.9583 131.597 48.9583H141.319Z" fill="black"/>
</svg>
