<svg width="200" height="200" viewBox="0 0 200 200" fill="none" xmlns="http://www.w3.org/2000/svg">
<path fill-rule="evenodd" clip-rule="evenodd" d="M84.3277 155.739C65.6092 148.156 56.25 135.346 56.25 117.308C56.25 99.2707 65.218 84.1359 83.154 71.9039C90.0206 68.2669 93.454 62.8958 93.454 55.7903C93.454 48.6849 90.0206 44.053 83.154 41.8946C105.337 40.2967 116.428 47.1046 116.428 62.3182C116.428 73.0467 107.234 80.0838 107.234 89.4054C107.234 93.3384 109.268 96.4456 113.337 98.7269C110.093 85.1204 115.517 77.2483 129.609 75.1105C122.103 84.6404 123.374 93.2584 133.423 100.965C143.369 107.638 147.499 117.746 145.815 131.289C143.288 151.604 118.309 159.335 97.4593 158.231C110.187 150.476 116.496 146.781 114.712 135.618C112.927 124.454 86.0614 118.556 86.0614 94.2626C67.4406 114.225 66.8627 134.717 84.3277 155.739Z" fill="black"/>
</svg>
