<svg width="200" height="200" viewBox="0 0 200 200" fill="none" xmlns="http://www.w3.org/2000/svg">
<path fill-rule="evenodd" clip-rule="evenodd" d="M76.5743 114.332C85.5648 116.084 98.0037 115.746 113.891 113.316C114.503 113.223 115.076 113.643 115.169 114.255C115.231 114.659 115.068 115.064 114.745 115.313C101.391 125.609 85.0187 130.219 65.6296 129.146C60.3364 139.495 54.0186 149.225 46.6761 158.333C45.9156 145.701 48.0805 130.044 53.1708 111.363C57.0207 97.234 61.6405 84.6908 67.0302 73.7333C70.1394 67.412 75.8383 62.7506 82.6507 60.9567L150.714 43.033C151.912 42.7175 153.139 43.4329 153.455 44.6309C153.609 45.2157 153.52 45.8379 153.209 46.3564C136.407 74.352 113.855 89.3663 85.5538 91.3993C101.167 92.1398 117.342 89.791 134.08 84.3528C134.669 84.1614 135.302 84.4835 135.493 85.0728C135.634 85.5076 135.498 85.9847 135.148 86.2787C114.119 103.938 94.5942 113.289 76.5743 114.332Z" fill="black"/>
</svg>
