<svg width="200" height="200" viewBox="0 0 200 200" fill="none" xmlns="http://www.w3.org/2000/svg">
<path fill-rule="evenodd" clip-rule="evenodd" d="M100 41.6667C126.847 41.6667 143.75 55.6974 143.75 87.914C143.75 95.8428 142.066 104.134 139.29 112.129C143.823 111.465 147.367 111.667 149.919 112.73C154.644 114.7 159.585 124.913 157.87 127.464C156.154 130.015 151.259 122.042 146.903 123.545C142.547 125.048 148.757 133.621 139.351 133.621C135.29 133.621 132.525 132.423 131.056 130.026C121.647 146.29 108.956 158.333 100 158.333C91.0625 158.333 78.4047 146.339 69.0019 130.124C67.5883 132.727 64.7639 134.028 60.5334 134.028C51.1271 134.028 57.337 125.455 52.9812 123.952C48.6253 122.449 43.7304 130.422 42.0148 127.871C40.2991 125.32 45.2407 115.107 49.9654 113.137C52.567 112.053 56.1995 111.864 60.8629 112.571C57.9971 104.443 56.2501 95.9902 56.2501 87.914C56.2501 55.6974 73.1529 41.6667 100 41.6667ZM74.4793 67.9261C70.9917 69.9396 72.2452 78.64 77.2791 87.3589C82.3129 96.0777 89.2209 101.513 92.7084 99.4999C96.196 97.4864 94.9425 88.7861 89.9086 80.0672C84.8748 71.3483 77.9668 65.9126 74.4793 67.9261ZM110.092 80.0672C105.058 88.7861 103.804 97.4864 107.292 99.4999C110.779 101.513 117.687 96.0777 122.721 87.3589C127.755 78.64 129.008 69.9396 125.521 67.9261C122.033 65.9126 115.125 71.3483 110.092 80.0672Z" fill="black"/>
</svg>
