<svg width="200" height="200" viewBox="0 0 200 200" fill="none" xmlns="http://www.w3.org/2000/svg">
<path fill-rule="evenodd" clip-rule="evenodd" d="M90.2779 55.2083C85.7241 74.6973 82.7824 91.5832 81.4526 105.866C80.1229 120.149 80.1229 134.86 81.4526 150H41.6667C47.741 129.948 54.8164 112.047 62.8929 96.2976C70.9694 80.5484 80.0977 66.852 90.2779 55.2083ZM153.472 55.2083C148.919 74.6973 145.977 91.5832 144.647 105.866C143.317 120.149 143.317 134.86 144.647 150H104.861C110.935 129.948 118.011 112.047 126.087 96.2976C134.164 80.5484 143.292 66.852 153.472 55.2083ZM121.704 33.3333C121.716 50.6592 119.548 67.4034 115.202 83.5659C110.855 99.7284 104.33 115.309 95.6253 130.308C95.6138 112.982 97.7814 96.238 102.128 80.0755C106.474 63.913 113 48.3323 121.704 33.3333Z" fill="black"/>
</svg>
