<svg width="200" height="200" viewBox="0 0 200 200" fill="none" xmlns="http://www.w3.org/2000/svg">
<path fill-rule="evenodd" clip-rule="evenodd" d="M153.076 123.841C153.337 124.363 153.472 124.938 153.472 125.521V128.593C153.472 130.434 152.432 132.117 150.785 132.941L102.174 157.246C100.805 157.931 99.1946 157.931 97.8261 157.246L49.215 132.941C47.5681 132.117 46.5278 130.434 46.5278 128.593V125.521C46.5278 123.447 48.2092 121.765 50.2832 121.765C50.8663 121.765 51.4413 121.901 51.9627 122.162L97.8261 145.094C99.1946 145.778 100.805 145.778 102.174 145.094L148.037 122.162C149.892 121.234 152.148 121.986 153.076 123.841ZM102.174 81.6426L149.638 105.374C152.039 106.575 153.012 109.495 151.812 111.896C151.341 112.837 150.578 113.6 149.638 114.07L102.174 137.802C100.805 138.486 99.1946 138.486 97.8261 137.802L50.3625 114.07C47.9613 112.87 46.9879 109.95 48.1886 107.548C48.659 106.608 49.4218 105.845 50.3625 105.374L97.8261 81.6426C99.1946 80.9583 100.805 80.9583 102.174 81.6426ZM80.5556 70.8334C84.5827 70.8334 87.8473 74.098 87.8473 78.1251C87.8473 82.1522 84.5827 85.4167 80.5556 85.4167C76.5285 85.4167 73.2639 82.1522 73.2639 78.1251C73.2639 74.098 76.5285 70.8334 80.5556 70.8334ZM121.875 56.2501C127.244 56.2501 131.597 60.6029 131.597 65.9723C131.597 71.3417 127.244 75.6945 121.875 75.6945C116.506 75.6945 112.153 71.3417 112.153 65.9723C112.153 60.6029 116.506 56.2501 121.875 56.2501ZM61.1112 41.6667C69.1653 41.6667 75.6945 48.1959 75.6945 56.2501C75.6945 64.3042 69.1653 70.8334 61.1112 70.8334C53.057 70.8334 46.5278 64.3042 46.5278 56.2501C46.5278 48.1959 53.057 41.6667 61.1112 41.6667Z" fill="black"/>
</svg>
