<svg width="200" height="200" viewBox="0 0 200 200" fill="none" xmlns="http://www.w3.org/2000/svg">
<path fill-rule="evenodd" clip-rule="evenodd" d="M99.1487 134.272L111.179 146.303L99.1487 158.333L87.1181 146.303L99.1487 134.272ZM99.087 65.9723L128.556 82.9862V117.014L99.087 134.028L69.6181 117.014V82.9862L99.087 65.9723ZM145.115 112.639L149.518 129.073L133.084 133.477L128.681 117.042L145.115 112.639ZM53.1189 112.639L69.553 117.042L65.1495 133.477L48.7153 129.073L53.1189 112.639ZM97.5343 76.0409L79.3051 86.9784L79.0442 87.159C78.5833 87.5249 78.2716 88.0456 78.1653 88.6217L78.1251 89.0626V110.938H82.9862V90.4358L100.035 80.2093L97.5343 76.0409ZM133.084 66.4584L149.518 70.8619L145.115 87.2961L128.681 82.8926L133.084 66.4584ZM65.1495 66.4584L69.553 82.8926L53.1189 87.2961L48.7153 70.8619L65.1495 66.4584ZM99.1487 41.6667L111.179 53.6974L99.1487 65.728L87.1181 53.6974L99.1487 41.6667Z" fill="black"/>
</svg>
