<svg width="200" height="200" viewBox="0 0 200 200" fill="none" xmlns="http://www.w3.org/2000/svg">
<path fill-rule="evenodd" clip-rule="evenodd" d="M130.167 51.3889C146.275 51.3889 159.333 64.4473 159.333 80.5556C159.333 89.432 155.368 97.3823 149.112 102.732L149.232 103.625C149.482 105.622 149.611 107.657 149.611 109.722C149.611 136.569 127.847 158.333 101 158.333C74.1529 158.333 52.389 136.569 52.389 109.722C52.389 107.657 52.5178 105.622 52.7677 103.625L52.8881 102.73C46.632 97.3823 42.6667 89.432 42.6667 80.5556C42.6667 64.4473 55.7251 51.3889 71.8334 51.3889C80.7099 51.3889 88.6602 55.3541 94.0097 61.6099L93.9707 61.6156C96.2658 61.2832 98.6129 61.1111 101 61.1111C103.397 61.1111 105.754 61.2847 108.059 61.6199L107.992 61.6102C113.34 55.3541 121.29 51.3889 130.167 51.3889ZM101 70.8334C90.2612 70.8334 80.539 75.1861 73.5015 82.2237C66.464 89.2612 62.1112 98.9834 62.1112 109.722C62.1112 120.461 66.464 130.183 73.5015 137.221C80.539 144.258 90.2612 148.611 101 148.611C111.739 148.611 121.461 144.258 128.499 137.221C135.536 130.183 139.889 120.461 139.889 109.722C139.889 98.9834 135.536 89.2612 128.499 82.2237C121.461 75.1861 111.739 70.8334 101 70.8334Z" fill="black"/>
</svg>
