<svg width="200" height="200" viewBox="0 0 200 200" fill="none" xmlns="http://www.w3.org/2000/svg">
<path fill-rule="evenodd" clip-rule="evenodd" d="M100 104.861C113.424 104.861 124.306 115.743 124.306 129.167C124.306 129.609 124.294 130.049 124.27 130.486C144.372 132.788 158.333 137.861 158.333 143.75C158.333 151.804 132.217 158.333 100 158.333C67.7835 158.333 41.6667 151.804 41.6667 143.75C41.6667 137.861 55.6286 132.788 75.7282 130.485C75.7064 130.049 75.6945 129.609 75.6945 129.167C75.6945 115.743 86.5765 104.861 100 104.861ZM124.306 75.6945C132.36 75.6945 138.889 82.2237 138.889 90.2778C138.889 98.332 132.36 104.861 124.306 104.861C116.251 104.861 109.722 98.332 109.722 90.2778C109.722 82.2237 116.251 75.6945 124.306 75.6945ZM75.6945 51.3889C89.1181 51.3889 100 62.2709 100 75.6945C100 89.1181 89.1181 100 75.6945 100C62.2709 100 51.389 89.1181 51.389 75.6945C51.389 62.2709 62.2709 51.3889 75.6945 51.3889Z" fill="black"/>
</svg>
