<svg width="200" height="200" viewBox="0 0 200 200" fill="none" xmlns="http://www.w3.org/2000/svg">
<path d="M86.1562 50.4598L80.0918 57.6235C78.2692 59.7765 75.7545 61.2284 72.9787 61.7303L63.7424 63.4004C62.7639 63.5773 61.8018 63.8351 60.866 64.1711C51.521 67.5264 46.6655 77.822 50.0208 87.167L53.1926 96.0008C54.1458 98.6557 54.1458 101.559 53.1926 104.214L50.0208 113.048C49.6848 113.984 49.427 114.946 49.25 115.925C47.4833 125.695 53.9718 135.048 63.7424 136.815L72.9787 138.485C75.7545 138.987 78.2692 140.439 80.0918 142.592L86.1562 149.755C86.7987 150.514 87.503 151.219 88.262 151.861C95.8402 158.276 107.184 157.334 113.6 149.755L119.664 142.592C121.487 140.439 124.001 138.987 126.777 138.485L136.013 136.815C136.992 136.638 137.954 136.38 138.89 136.044C148.235 132.689 153.09 122.393 149.735 113.048L146.563 104.214C145.61 101.559 145.61 98.6557 146.563 96.0008L149.735 87.167C150.071 86.2311 150.329 85.269 150.506 84.2905C152.272 74.5199 145.784 65.1671 136.013 63.4004L126.777 61.7303C124.001 61.2284 121.487 59.7765 119.664 57.6235L113.6 50.4598C112.957 49.7008 112.253 48.9965 111.494 48.354C103.916 41.9387 92.5715 42.8815 86.1562 50.4598ZM105.212 55.7744C105.561 56.0695 105.884 56.3929 106.179 56.7414L112.244 63.9052C115.524 67.7806 120.051 70.394 125.047 71.2974L134.283 72.9675C138.77 73.7788 141.75 78.0738 140.939 82.5606C140.857 83.01 140.739 83.4518 140.585 83.8816L137.413 92.7154C135.697 97.4942 135.697 102.721 137.413 107.5L140.585 116.334C142.126 120.625 139.896 125.353 135.604 126.894C135.175 127.048 134.733 127.166 134.283 127.248L125.047 128.918C120.051 129.821 115.524 132.435 112.244 136.31L106.179 143.474C103.233 146.954 98.0237 147.387 94.5436 144.441C94.1951 144.146 93.8717 143.822 93.5766 143.474L87.5122 136.31C84.2316 132.435 79.705 129.821 74.7085 128.918L65.4723 127.248C60.9854 126.436 58.0058 122.141 58.8171 117.655C58.8984 117.205 59.0167 116.763 59.1711 116.334L62.3429 107.5C64.0587 102.721 64.0587 97.4942 62.3429 92.7154L59.1711 83.8816C57.6302 79.5902 59.86 74.8622 64.1514 73.3214C64.5811 73.1671 65.023 73.0487 65.4723 72.9675L74.7085 71.2974C79.705 70.394 84.2316 67.7806 87.5122 63.9052L93.5766 56.7414C96.4175 53.3856 101.363 52.8632 104.833 55.4717L105.212 55.7744Z" fill="black"/>
</svg>
