<svg width="200" height="200" viewBox="0 0 200 200" fill="none" xmlns="http://www.w3.org/2000/svg">
<path fill-rule="evenodd" clip-rule="evenodd" d="M125.37 48.9583C128.19 48.9583 130.895 50.0786 132.889 52.0728L147.927 67.1111C149.921 69.1053 151.042 71.81 151.042 74.6302V125.37C151.042 128.19 149.921 130.895 147.927 132.889L132.889 147.927C130.895 149.921 128.19 151.042 125.37 151.042H74.6302C71.81 151.042 69.1053 149.921 67.1111 147.927L52.0728 132.889C50.0786 130.895 48.9583 128.19 48.9583 125.37V74.6302C48.9583 71.81 50.0786 69.1053 52.0728 67.1111L67.1111 52.0728C69.1053 50.0786 71.81 48.9583 74.6302 48.9583H125.37ZM141.468 106.78C140.519 105.831 138.98 105.831 138.031 106.78L108.136 136.675C107.561 137.25 107.312 138.074 107.471 138.871C107.734 140.187 109.015 141.04 110.331 140.777L135.244 135.795C136.206 135.602 136.958 134.85 137.15 133.888L142.133 108.975C142.292 108.178 142.043 107.355 141.468 106.78ZM58.5316 106.78C57.957 107.355 57.7076 108.178 57.8669 108.975L62.8495 133.888C63.0419 134.85 63.794 135.602 64.7562 135.795L89.6688 140.777C90.9851 141.04 92.2656 140.187 92.5288 138.871C92.6882 138.074 92.4388 137.25 91.8641 136.675L61.969 106.78C61.0198 105.831 59.4808 105.831 58.5316 106.78ZM107.471 60.0007C107.312 60.7975 107.561 61.6213 108.136 62.196L138.031 92.0912C138.453 92.513 138.991 92.7474 139.542 92.7943H139.957L140.366 92.724C140.77 92.6185 141.152 92.4076 141.468 92.0912C142.043 91.5165 142.292 90.6927 142.133 89.8958L137.15 64.9832C136.958 64.021 136.206 63.2689 135.244 63.0765L110.331 58.094C109.015 57.8307 107.734 58.6844 107.471 60.0007Z" fill="black"/>
</svg>
