<svg width="200" height="200" viewBox="0 0 200 200" fill="none" xmlns="http://www.w3.org/2000/svg">
<path fill-rule="evenodd" clip-rule="evenodd" d="M103.003 107.492L113.099 145.179L106.014 150.332C102.82 152.653 98.5648 152.798 95.2377 150.768L94.5853 150.332L65.6278 129.292L103.003 107.492ZM141.282 69.5666L153.595 107.459C154.897 111.465 153.471 115.853 150.064 118.329L121.524 139.058L105.476 79.1645L141.282 69.5666ZM127.524 48.9583C131.736 48.9583 135.469 51.6704 136.77 55.6761L138.274 60.3083L98.2659 71.0306C95.6726 71.7255 94.1337 74.391 94.8285 76.9842L100.395 97.7582L57.0362 123.05L50.5361 118.329C47.3291 115.999 45.8774 111.974 46.8028 108.169L47.0043 107.459L63.8296 55.6761C65.1312 51.6704 68.8641 48.9583 73.076 48.9583H127.524ZM124.605 81.5676C119.236 81.5676 114.883 85.9204 114.883 91.2898C114.883 96.6592 119.236 101.012 124.605 101.012C129.975 101.012 134.328 96.6592 134.328 91.2898C134.328 85.9204 129.975 81.5676 124.605 81.5676ZM78.4249 59.6926C74.3978 59.6926 71.1332 62.9572 71.1332 66.9842C71.1332 71.0113 74.3978 74.2759 78.4249 74.2759C82.4519 74.2759 85.7165 71.0113 85.7165 66.9842C85.7165 62.9572 82.4519 59.6926 78.4249 59.6926Z" fill="black"/>
</svg>
