<svg width="200" height="200" viewBox="0 0 200 200" fill="none" xmlns="http://www.w3.org/2000/svg">
<path fill-rule="evenodd" clip-rule="evenodd" d="M100 41.6667C124.306 81.7154 136.458 108.451 136.458 121.875C136.458 142.01 120.135 158.333 100 158.333C79.8647 158.333 63.5417 142.01 63.5417 121.875C63.5417 108.451 75.6945 81.7154 100 41.6667ZM125.544 118.893C124.401 118.189 122.904 118.545 122.2 119.688C121.863 120.235 121.541 120.71 121.232 121.112C116.346 127.487 108.653 131.597 100 131.597C90.9335 131.597 82.921 127.084 78.0868 120.181C77.9837 120.034 77.8785 119.877 77.7714 119.71C77.3548 119.059 76.6535 118.645 75.8825 118.595C74.543 118.507 73.3864 119.523 73.2992 120.862L73.2727 121.385L73.264 121.875C73.264 136.641 85.2341 148.611 100 148.611C114.766 148.611 126.736 136.641 126.736 121.875C126.736 121.535 126.722 121.171 126.694 120.785C126.636 120.006 126.209 119.303 125.544 118.893Z" fill="black"/>
</svg>
